<?xml version="1.0" encoding="UTF-8"?>
<svg version="1.1" viewBox="0 0 1080 1080" width="1080" height="1080" xmlns="http://www.w3.org/2000/svg">
<path transform="translate(454,347)" d="m0 0h219l13 7 23 15 14 9 11 6 4 2v2l6 2 18 12 9 5 11 7 8 5 3 1v2l4 1 12 7 8 6 3 4 1 4v156l2 7 8 1 9 6v2l4 1 2 1v2l5 2 10 8 2 1v2l5 2 3 2v2l5 2 13 11 3 2v2l4 2 7 7 8 6v2l4 2 21 21 9 11 8 8v2h2l7 9v2h2l4 6v2h2l11 15 4 5v3h2l5 8 14 21 6 11 8 14 9 17 7 14 5 14 3 5 3 10 5 12 3 7 5 18 3 8 1 7 1 1 1 7 3 9 4 18 2 10 1 4 1 13 1 2 1 10 1 1v80h-1079l-1-1v-59l1-2 1-20 1-2 1-10 3-13 4-24 3-12 1-7 3-9 5-18 7-21 3-7 5-14 3-5 5-13 9-19 8-15 11-19 9-14 4-7 5-6 3-5 14-20 3-4h2l2-4 18-22 11-12 1-2h2l2-4 21-21h2v-2l14-11 10-9 8-6h2v-2l14-10 13-10 7-5 10-5 11-8 14-7 10-6 16-9 5-5 1-133 4-6 11-6 13-9 8-4 7-5 6-2v-2l9-5 4-3h3v-2l12-7 9-5 6-4 11-7 5-3h2v-2h4v-2l11-6 7-5 9-5zm161 111m-11 30 1 2z" fill="#1D223E"/>
<path transform="translate(818,438)" d="m0 0 2 2 1 4v156l2 7 8 1 9 6v2l4 1 2 1v2l5 2 10 8 2 1v2l5 2 3 2v2l5 2 13 11 3 2v2l4 2 7 7 8 6v2l4 2 21 21 9 11 8 8v2h2l7 9v2h2l4 6v2h2l11 15 4 5v3h2l5 8 14 21 6 11 8 14 9 17 7 14 5 14 3 5 3 10 5 12 3 7 5 18 3 8 1 7 1 1 1 7 3 9 4 18 2 10 1 4 1 13 1 2 1 10 1 1v80h-87l5-5v-6l-2-3-4-1-87-1-1-173-4-4-30-18-28-17-20-12-3-2z" fill="#1375CE"/>
<path transform="translate(475,793)" d="m0 0 5 2 22 13 56 34 20 12 56 34 16 10v167h-127l-1-1-1-92-4-13-7-11-10-8-11-5-5-1h-16l-13 4-10 7-8 9-5 11-2 9-1 91h-128v-167l20-12 56-34 30-18 56-34z" fill="#E7E9EB"/>
<path transform="translate(204,666)" d="m0 0h266v113l-32 19-16 10-32 19-16 10-32 19-16 10-32 19-6 4-1 2-1 173h-82z" fill="#1174CE"/>
<path transform="translate(188,655)" d="m0 0h2l-1 409-102 1-5 3-1 6 3 4 3 2h-86l-1-1v-59l1-2 1-20 1-2 1-10 3-13 4-24 3-12 1-7 3-9 5-18 7-21 3-7 5-14 3-5 5-13 9-19 8-15 11-19 9-14 4-7 5-6 3-5 14-20 3-4h2l2-4 18-22 11-12 1-2h2l2-4 21-21h2v-2l14-11z" fill="#1174CD"/>
<path transform="translate(477,141)" d="m0 0h15l4 1 20 2 6 1 17 1 3 1 17 1 5 1 19 1 5 1 19 1 9 2v2l4 1 5 5 6 11v11l-6 14-5 13-3 7-5 14-5 12-5 11-3 10-5 11-3 10-6 12-3 8-2 4h-2v2h-2v2l-10 5h-14l-10-6-6-8-5-9-6-10-4-6-5-10-3-3h-5l-4 3h-2v2l-7 4h-3v2l-20 12-18 11-14 9h-3v2l-11 6-7 5-9 5-15 9-14 9-9 5-18 12-10 5-11 7-7 5-9 5-18 11-13 9-8 4-6 4-5 3-2 4-4 20-3 10-3 17-3 12-3 14-1 1-3 18-4 13-3 15-1 2-1 9-3 11-1 7-4 9-1 2h-2v2l-9 5-10 8-10 6h-2v2l-5 3-11 8h-3v2l-12 7-9 7-12 8-11 7-9 7-9 6-7 4-12 9-6 4h-2v2l-9 5-5 4-9 6h-2v2l-12 7-16 12h-5l-3-3-4-8v-2h-2l-4-6v-2h-2l-8-11-1-2v-6l4-5 11-7 9-7 5-3 6-4 17-12 6-4h3v-2l9-6 42-29 4-1v-2l8-5 14-10 11-7 11-8 15-10 5-6 3-9 3-17 1-1 3-16 3-11 3-15 4-14 3-16 3-10 1-8 1-1 3-16 3-11 2-10 4-7 14-9 5-3h2v-2l7-4h3v-2l16-9 11-7 7-5 11-6 7-5 9-5 20-12 8-5 4-1v-2l11-6 12-8 11-7 9-5 9-6h3v-2l11-6 9-6 14-9 8-4h2v-2l11-6 7-5 9-5 8-5v-8l-7-10-6-11-7-10-6-12v-13l4-8 8-7z" fill="#192E9D"/>
<path transform="translate(603,451)" d="m0 0h201v377l-5-2-25-15-28-17-23-14-5-3-1-122-7-6-25-17-35-24-32-22-15-10zm12 7m-11 30 1 2z" fill="#1174CD"/>
<path transform="translate(666,902)" d="m0 0h224v162h-224z" fill="#1174CE"/>
<path transform="translate(454,364)" d="m0 0 10 5 19 12 23 14 73 45 8 5v126h-86l-1-1-1-56-4-12-7-11-9-8-10-5-8-2h-17l-12 4-10 7-3 1-2 4-6 9-4 11-1 5-1 54h-83v-125l10-7 22-13 19-12 78-48z" fill="#7591AB"/>
<path transform="translate(593,588)" d="m0 0 5 2 12 8 19 13 54 37 16 11 4 3v114h-62l-1-47-3-11-4-8-9-10-9-5-9-3-10-1-12 2-9 4-6 4-7 7-6 12-2 8-1 48h-68v-114l20-14 79-54z" fill="#E7E9EB"/>
<path transform="translate(603,451)" d="m0 0h201v140l-6-2-27-14-19-9-27-11-24-8-29-8-27-6-35-6-7-1zm12 7m-11 30 1 2z" fill="#FEFEFE"/>
<path transform="translate(470,948)" d="m0 0h12l10 4 8 7 5 8 2 6v92h-62l-1-1v-89l3-10 7-9 9-6z" fill="#E5E7EA"/>
<path transform="translate(584,792)" d="m0 0h51l25 15 112 68 16 10v1h-51l-140-85-13-8z" fill="#1174CE"/>
<path transform="translate(498,586)" d="m0 0h70l-5 5-79 54-7 5h-77l5-4 20-13 68-44z" fill="#1174CE"/>
<path transform="translate(451,490)" d="m0 0 10 1 9 4 8 7 6 12 1 5v52h-64v-55l4-10 7-8 5-4 8-3z" fill="#7591AB"/>
<path transform="translate(665,792)" d="m0 0h50l135 82 18 11v1h-50l-16-10-20-12-112-68z" fill="#1174CE"/>
<path transform="translate(505,792)" d="m0 0h49l112 68 20 12 21 13v1h-48l-29-17-16-10-20-12-84-51z" fill="#1174CE"/>
<path transform="translate(315,586)" d="m0 0h67l-5 5-18 11-44 28-19 12-13 8h-60l4-4 15-10 57-39z" fill="#1174CE"/>
<path transform="translate(412,586)" d="m0 0h57l-4 4-16 10-23 15-20 13-34 22h-60l5-4 22-14 19-12 24-15 22-14z" fill="#1174CE"/>
<path transform="translate(595,705)" d="m0 0 10 1 10 5 7 8 4 11v46h-58v-47l3-9 8-9 10-5z" fill="#E7E9EB"/>
<path transform="translate(556,362)" d="m0 0h45l23 14 73 45 21 13v1h-46l-10-7-11-6-10-7-9-5-9-6-7-4-13-8-9-6-9-5-9-6-7-4-13-8z" fill="#FDFDFE"/>
<path transform="translate(482,362)" d="m0 0h45l22 14 23 14 24 15 23 14 24 15v1h-45v-2l-4-1-9-6-9-5-9-6-7-4-10-6-9-6-7-4-10-6-9-6-7-4-10-6-9-6-7-4z" fill="#FDFDFD"/>
<path transform="translate(631,362)" d="m0 0h38l22 13 19 12 26 16 47 29 3 3h-39l-10-7-9-5-11-7-10-6-9-6-7-4-10-6-11-7-10-6-9-6-7-4-13-8z" fill="#FDFDFD"/>
<path transform="translate(506,266)" d="m0 0 2 1-4 3h-2v2l-7 4h-3v2l-20 12-18 11-14 9h-3v2l-11 6-7 5-9 5-15 9-14 9-9 5-18 12-10 5-8 5-2-1 16-10 21-13 26-16 23-14 78-48z" fill="#FAFAFB"/>
<path transform="translate(225,578)" d="m0 0h2v2h-2v2l-9 5-10 8-10 6h-2v2l-5 3-11 8h-3v2l-12 7-9 7-12 8-8 5-2-1 11-8 24-16 14-10 22-15 16-11z" fill="#FAFAFB"/>
<path transform="translate(332,373)" d="m0 0 2 1-5 4-12 7-18 11-13 9-8 4-6 4-5 3-2 4-4 20-3 10-1-4 7-30 4-4 22-13 19-12z" fill="#FAFAFB"/>
<path transform="translate(258,604)" d="m0 0h2v2l-3 1-4 4-21 14-6 3-5 5-12 8-4 3-2-1 4-2v-2l14-10 13-10 7-5 10-5z" fill="#5992C8"/>
<path transform="translate(1070,952)" d="m0 0 2 2 4 20 1 13 1 2 1 10 1 1v34h-1l-2-30-4-31-3-17z" fill="#FAFAFA"/>
<path transform="translate(108,658)" d="m0 0 2 1-13 10-9 6h-2v2l-9 5-5 4-9 6h-2v2l-12 7h-3l11-8 12-8 23-16z" fill="#FAFAFB"/>
<path transform="translate(600,255)" d="m0 0h1v5l-5 12-8 20-3 6-1-3 14-35z" fill="#FBFBFC"/>
<path transform="translate(21,909)" d="m0 0h1v7l-3 8-3 15-3 13-2 2 1-7 3-17 3-9z" fill="#96AABD"/>
<path transform="translate(258,604)" d="m0 0h2v2l-3 1-4 4-6 4-8 2v2l-3 2-3-1 8-6 10-5z" fill="#76A0C5"/>
<path transform="translate(235,542)" d="m0 0h1v9l-3 11-1 7-3 7-1-3z" fill="#FAFAFA"/>
<path transform="translate(4,986)" d="m0 0h1v13l-1 1-1 22-3 3 1-7 1-20 1-2z" fill="#BAC6D1"/>
<path transform="translate(40,857)" d="m0 0h1v5l-5 10-3 10-3 3 2-9 5-11z" fill="#99ADBF"/>
<path transform="translate(130,643)" d="m0 0 2 1-7 6-11 7-4 1 4-4z" fill="#FAFAFB"/>
<path transform="translate(156,684)" d="m0 0v3l-11 12-1 2h-2v2l-2-1 6-8h2l2-4z" fill="#A0B2C2"/>
<path transform="translate(448,302)" d="m0 0 1 2-9 6h-3v2l-6 3-2-1 10-7z" fill="#FCFCFC"/>
<path transform="translate(181,661)" d="m0 0 1 2h-2v2h-2v2l-11 9-2-1 6-6h2v-2z" fill="#A5B6C6"/>
<path transform="translate(982,754)" d="m0 0 3 2v3h2l5 8 3 6h-2l-7-11v-2h-2l-2-3z" fill="#A0B3C4"/>
<path transform="translate(44,702)" d="m0 0 2 1-13 10h-5l4-3z" fill="#F9F9F9"/>
<path transform="translate(590,280)" d="m0 0h2l-2 7-5 11-1-3z" fill="#FAFAFA"/>
<path transform="translate(961,726)" d="m0 0 1 2h2l4 6v2h2l3 4-1 2-3-3v-2h-2l-6-8z" fill="#A5B6C6"/>
<path transform="translate(902,665)" d="m0 0 5 3 4 3v2l4 2 2 3-5-2-8-7v-2h-2z" fill="#9FB1C2"/>
<path transform="translate(183,607)" d="m0 0v3l-5 4h-3v2l-4 1 1-3z" fill="#FCFCFC"/>
<path transform="translate(216,634)" d="m0 0 2 1-13 9-2-1 4-2v-2l5-4z" fill="#729BC3"/>
<path transform="translate(137,705)" d="m0 0v3l-8 10-2-1 7-9z" fill="#A6B7C6"/>
<path transform="translate(245,612)" d="m0 0 2 1-6 4h-2v2l-3 2-3-1 8-6z" fill="#A2B3C4"/>
<path transform="translate(232,560)" d="m0 0 1 2-1 7-3 7-1-3 3-12z" fill="#FCFCFC"/>
</svg>
